<?xml version="1.0" encoding="utf-8"?>
<!-- Generator: Adobe Illustrator 22.0.0, SVG Export Plug-In . SVG Version: 6.00 Build 0)  -->
<svg version="1.1" iclass="st0" d="Layer_1" xmlns="http://www.w3.org/2000/svg"
     x="0px" y="0px"
     viewBox="0 0 512 512" style="enable-background:new 0 0 512 512;" xml:space="preserve">
<style type="text/css">
	.st0{fill:#EEEEEE;}
</style>
    <g>
	<path class="st0" d="M242,1c10,0,20,0,30,0c1.3,0.3,2.5,0.8,3.8,0.8c26.3,1.7,51.8,7.2,76,17.5c86.4,37,139.1,101.6,157.2,194
		c1.8,9.4,2.7,19,4,28.6c0,10,0,20,0,30c-0.3,1.3-0.8,2.6-0.9,3.8c-2.8,40.2-14.3,77.8-35.4,112.1c-40.6,66.1-99.2,106.8-175.6,121
		c-9.6,1.8-19.4,2.7-29.1,4c-10,0-20,0-30,0c-1.5-0.3-2.9-0.8-4.4-0.8c-22.2-1.5-44-5.5-64.8-13.5C75.4,461.1,18.4,390.8,2.9,287.2
		c-0.7-4.7-1.3-9.5-1.9-14.2c0-10.3,0-20.7,0-31c0.3-1.4,0.7-2.9,0.8-4.3c2.5-35.5,11.9-69.2,29-100.4C70.8,64.9,131.5,20.5,212.9,5
		C222.5,3.2,232.3,2.3,242,1z M22.3,256.9c0.5,130.3,105.8,235.5,235.1,234.8c130-0.7,235.3-106.3,234.3-235.1
		c-1-130.3-105.5-234.5-235.1-234.3C127.3,22.5,21.8,128.2,22.3,256.9z"/>
        <path class="st0" d="M427.8,257c0,27.8,0,55.7,0,83.5c0,8.1-3.6,12.5-10.3,12.7c-5.8,0.2-9.9-3-10.9-8.8c-0.3-2-0.3-4-0.3-6
		c0-54.3,0-108.7,0-163c0-2,0-4,0.4-6c1-5.3,4.6-8.5,9.5-8.7c5.1-0.2,9.5,2.8,10.9,7.8c0.6,2.2,0.7,4.6,0.7,6.9
		C427.8,202.7,427.8,229.8,427.8,257z"/>
        <path class="st0" d="M150.2,256.6c0-27.1,0-54.3,0-81.4c0-9.5,3.7-14.5,10.6-14.4c7,0.1,10.9,5.3,10.9,14.4c0,54.9,0,109.9,0,164.8
		c0,9.6-6.5,14.8-14.7,11.9c-4.7-1.6-6.8-5-6.8-11.5c0-21,0-42,0-62.9C150.2,270.6,150.2,263.6,150.2,256.6z"/>
        <path class="st0" d="M267.2,257.1c0,24.3,0,48.6,0,72.9c0,8-3.3,12-10,12.1c-7.2,0.1-11.2-4.2-11.2-12.2c0-48.6,0-97.2,0-145.8
		c0-8.4,6.6-14,13.9-12c4.6,1.3,7.3,5.1,7.3,10.6C267.2,207.5,267.2,232.3,267.2,257.1C267.2,257.1,267.2,257.1,267.2,257.1z"/>
        <path class="st0" d="M374.8,256.8c0-17.7,0-35.3,0-53c0-6.8,3.5-10.5,10.3-10.7c6.2-0.3,10.9,3.9,10.9,10.4c0.1,35.7,0.1,71.3,0,107
		c0,6.4-4.6,10.6-10.8,10.6c-6.4,0-10.3-3.8-10.3-10.8C374.8,292.4,374.8,274.6,374.8,256.8z"/>
        <path class="st0" d="M203.2,256.6c0,17.5,0,35,0,52.5c0,7.9-3.4,11.9-10.1,12c-6.8,0.1-11-4.4-11-11.9c0-34.8,0-69.7,0-104.5
		c0-7.8,5.8-12.7,13.5-11.5c4.8,0.7,7.7,4.4,7.8,10C203.2,220.9,203.2,238.7,203.2,256.6C203.2,256.6,203.2,256.6,203.2,256.6z"/>
        <path class="st0" d="M299.8,257c0,13.2,0,26.3,0,39.5c0,1.5,0.1,3-0.1,4.5c-0.7,5.9-5.1,9.8-10.8,9.7c-5.6-0.1-10.3-3.8-10.4-9.5
		c-0.3-29.3-0.3-58.6,0-87.9c0-5.9,4.8-9.9,10-9.9c5.3-0.1,10.1,4,11,9.7c0.4,2.3,0.2,4.6,0.2,7C299.8,232.3,299.8,244.7,299.8,257z
		"/>
        <path class="st0" d="M139.2,256.8c0,10.5,0,21,0,31.5c0,7.4-4.1,11.7-10.7,11.6c-6.4-0.1-10.5-4.4-10.5-11.4c-0.1-21-0.1-42,0-62.9
		c0-6.9,4.8-11.3,11.9-11.2c6,0,9.4,4,9.3,11C139.2,235.8,139.2,246.3,139.2,256.8C139.2,256.8,139.2,256.8,139.2,256.8z"/>
        <path class="st0" d="M310.8,257c0-7.1,0-14.3,0-21.4c0-6.4,3.8-10.6,9.8-10.8c6-0.1,11.2,4.3,11.3,10.3c0.2,14.6,0.2,29.3,0,43.9
		c-0.1,5.8-5.3,10-11.2,9.8c-5.9-0.2-9.8-4.1-9.9-10.3C310.7,271.3,310.8,264.2,310.8,257C310.8,257,310.8,257,310.8,257z"/>
        <path class="st0" d="M86.3,257.2c0-3.8-0.2-7.7,0-11.5c0.4-6.4,4.3-9.8,10.8-9.9c5.8-0.1,10.2,3.6,10.5,9.7c0.4,7.8,0.4,15.6,0,23.4
		c-0.3,6-4.6,9.5-10.7,9.4c-6-0.1-10.1-3.6-10.5-9.7C86.1,264.9,86.3,261,86.3,257.2z"/>
        <path class="st0" d="M342.3,257c0-3.7-0.2-7.3,0-11c0.4-6.4,4.1-10.1,10-10.2c6.4-0.1,11.1,3.8,11.3,10.1c0.3,7.5,0.3,15,0,22.5
		c-0.3,6.3-4.6,10-10.9,9.9c-6.1-0.1-10-3.7-10.4-9.8C342.1,264.7,342.3,260.9,342.3,257C342.3,257,342.3,257,342.3,257z"/>
        <path class="st0" d="M235.7,257.6c0,3.5,0.2,7-0.1,10.5c-0.5,6.3-4.7,10.1-10.8,10.1c-6,0-10.3-3.9-10.5-10.3c-0.3-7.1-0.3-14.3,0-21.4
		c0.3-6.2,4.9-10.6,10.4-10.6c5.7,0,10.5,4.5,10.9,10.8C235.9,250.3,235.7,254,235.7,257.6C235.7,257.6,235.7,257.6,235.7,257.6z"/>
</g>
</svg>
